<svg xmlns="http://www.w3.org/2000/svg" viewBox="0 0 320 290"><defs><linearGradient id="gold" x2=".8" y2="1"><stop stop-color="#ffe7ab"/><stop offset="1" stop-color="#b78245"/></linearGradient><linearGradient id="paper" x2=".8" y2="1"><stop stop-color="#fff0cb"/><stop offset="1" stop-color="#cda878"/></linearGradient><linearGradient id="dark" x2="1" y2="1"><stop stop-color="#6c5b88"/><stop offset="1" stop-color="#254c48"/></linearGradient></defs><g stroke="#e5ba77" stroke-width="5" stroke-linecap="round" stroke-linejoin="round"><path d="M66 110H253V239H66Z" fill="url(#dark)"/><path d="M51 104L78 60H240L269 104Z" fill="url(#gold)"/><path d="M51 104V120Q77 149 104 120Q132 149 160 120Q188 149 216 120Q242 149 269 120V104" fill="url(#paper)"/><path d="M105 64V105M159 64V105M214 64V105"/><rect x="86" y="158" width="57" height="55" fill="url(#paper)"/><rect x="171" y="149" width="52" height="90" fill="url(#dark)"/><path d="M43 243H279"/></g><g fill="#ffe7a8"><path d="M34 47L38 57L48 61L38 65L34 75L30 65L20 61L30 57Z"/><path d="M279 171L283 181L293 185L283 189L279 199L275 189L265 185L275 181Z"/></g></svg>