<svg xmlns="http://www.w3.org/2000/svg" viewBox="0 0 320 290"><defs><linearGradient id="gold" x2=".8" y2="1"><stop stop-color="#ffe7ab"/><stop offset="1" stop-color="#b78245"/></linearGradient><linearGradient id="paper" x2=".8" y2="1"><stop stop-color="#fff0cb"/><stop offset="1" stop-color="#cda878"/></linearGradient><linearGradient id="dark" x2="1" y2="1"><stop stop-color="#6c5b88"/><stop offset="1" stop-color="#254c48"/></linearGradient></defs><g stroke="#e5ba77" stroke-width="5" stroke-linecap="round" stroke-linejoin="round"><path d="M160 239L67 145Q30 107 68 65Q114 28 160 83Q206 28 252 65Q289 107 253 145Z" fill="url(#gold)"/><path d="M103 101Q85 87 76 113" stroke="#fff2cc"/></g><g fill="#ffe7a8"><path d="M34 47L38 57L48 61L38 65L34 75L30 65L20 61L30 57Z"/><path d="M279 171L283 181L293 185L283 189L279 199L275 189L265 185L275 181Z"/></g></svg>