<svg xmlns="http://www.w3.org/2000/svg" viewBox="0 0 320 290"><defs><linearGradient id="gold" x2=".8" y2="1"><stop stop-color="#ffe7ab"/><stop offset="1" stop-color="#b78245"/></linearGradient><linearGradient id="paper" x2=".8" y2="1"><stop stop-color="#fff0cb"/><stop offset="1" stop-color="#cda878"/></linearGradient><linearGradient id="dark" x2="1" y2="1"><stop stop-color="#6c5b88"/><stop offset="1" stop-color="#254c48"/></linearGradient></defs><g stroke="#e5ba77" stroke-width="5" stroke-linecap="round" stroke-linejoin="round"><path d="M89 53H238V218H87Q64 219 65 239Q65 253 85 254H235Q260 254 260 231V74Q260 52 238 53Z" fill="url(#paper)"/><path d="M89 53Q65 53 65 76Q65 91 85 91H111V74Q111 53 89 53ZM88 219H235Q260 219 260 239" fill="url(#gold)"/><path d="M128 90H221M128 110H210M128 130H189"/><circle cx="170" cy="179" r="30" fill="url(#gold)"/><path d="M170 157L177 171L193 173L181 184L184 201L170 193L156 201L159 184L147 173L163 171Z" fill="#755037"/></g><g fill="#ffe7a8"><path d="M34 47L38 57L48 61L38 65L34 75L30 65L20 61L30 57Z"/><path d="M279 171L283 181L293 185L283 189L279 199L275 189L265 185L275 181Z"/></g></svg>