<svg xmlns="http://www.w3.org/2000/svg" width="1200" height="280" viewBox="0 0 1200 280"><defs><linearGradient id="bg"><stop stop-color="#211638"/><stop offset="1" stop-color="#584575"/></linearGradient><radialGradient id="window"><stop stop-color="#e9ca96" stop-opacity=".5"/><stop offset="1" stop-color="#b19bcb" stop-opacity=".05"/></radialGradient></defs><rect width="1200" height="280" rx="22" fill="url(#bg)"/><circle cx="895" cy="13" r="1" fill="#ffe0a0" opacity="0.5"/><circle cx="1023" cy="109" r="3" fill="#ffe0a0" opacity="0.3"/><circle cx="1001" cy="200" r="2" fill="#ffe0a0" opacity="0.3"/><circle cx="475" cy="173" r="2" fill="#ffe0a0" opacity="0.7"/><circle cx="1144" cy="131" r="2" fill="#ffe0a0" opacity="0.7"/><circle cx="1166" cy="61" r="2" fill="#ffe0a0" opacity="0.7"/><circle cx="1117" cy="41" r="3" fill="#ffe0a0" opacity="0.3"/><circle cx="1102" cy="153" r="1" fill="#ffe0a0" opacity="0.3"/><circle cx="641" cy="24" r="2" fill="#ffe0a0" opacity="0.3"/><circle cx="545" cy="160" r="2" fill="#ffe0a0" opacity="0.3"/><circle cx="519" cy="115" r="2" fill="#ffe0a0" opacity="0.5"/><circle cx="598" cy="162" r="2" fill="#ffe0a0" opacity="0.5"/><circle cx="569" cy="202" r="3" fill="#ffe0a0" opacity="0.7"/><circle cx="1087" cy="135" r="3" fill="#ffe0a0" opacity="0.7"/><circle cx="364" cy="193" r="1" fill="#ffe0a0" opacity="0.3"/><circle cx="615" cy="220" r="3" fill="#ffe0a0" opacity="0.5"/><circle cx="480" cy="39" r="3" fill="#ffe0a0" opacity="0.7"/><circle cx="450" cy="121" r="1" fill="#ffe0a0" opacity="0.5"/><circle cx="392" cy="69" r="2" fill="#ffe0a0" opacity="0.7"/><circle cx="1154" cy="78" r="2" fill="#ffe0a0" opacity="0.5"/><circle cx="651" cy="85" r="3" fill="#ffe0a0" opacity="0.3"/><circle cx="931" cy="136" r="3" fill="#ffe0a0" opacity="0.5"/><circle cx="1161" cy="31" r="2" fill="#ffe0a0" opacity="0.3"/><circle cx="615" cy="15" r="2" fill="#ffe0a0" opacity="0.3"/><circle cx="1059" cy="216" r="1" fill="#ffe0a0" opacity="0.7"/><circle cx="1160" cy="167" r="2" fill="#ffe0a0" opacity="0.3"/><circle cx="646" cy="205" r="1" fill="#ffe0a0" opacity="0.5"/><circle cx="564" cy="15" r="3" fill="#ffe0a0" opacity="0.5"/><circle cx="636" cy="65" r="1" fill="#ffe0a0" opacity="0.7"/><circle cx="419" cy="52" r="2" fill="#ffe0a0" opacity="0.5"/><circle cx="1054" cy="168" r="2" fill="#ffe0a0" opacity="0.7"/><circle cx="890" cy="157" r="1" fill="#ffe0a0" opacity="0.7"/><circle cx="1120" cy="48" r="25" fill="#f4d9a1" opacity=".45"/><path d="M660 198V124L705 80L750 124V198Z" fill="#94b3a2" opacity=".22"/><rect x="691" y="145" width="26" height="53" rx="12" fill="#f0d58e" opacity=".35"/><path d="M1080 198V124L1125 80L1170 124V198Z" fill="#94b3a2" opacity=".22"/><rect x="1111" y="145" width="26" height="53" rx="12" fill="#f0d58e" opacity=".35"/><path d="M838 235V107A112 112 0 0 1 1062 107V235" fill="url(#window)" stroke="#e6ca8e" stroke-opacity=".5" stroke-width="6"/><ellipse cx="944" cy="245" rx="209" ry="19" fill="#ead29c" opacity=".18"/><path d="M600 260Q915 218 1190 260" fill="none" stroke="#dec395" opacity=".25"/><g transform="translate(832 23) scale(.94)"><circle cx="78" cy="76" r="30" fill="#eccb9b"/><circle cx="161" cy="78" r="29" fill="#d4b8ae"/><path d="M24 196V152Q24 112 78 112Q132 112 132 152V196Z" fill="#81b6ab"/><path d="M137 195V147Q137 115 168 115Q214 115 214 152V195Z" fill="#aa8cbd"/><path d="M60 76Q78 91 96 76M144 78Q161 92 178 78" stroke="#765a57" stroke-width="4" fill="none"/><path d="M67 153H91M79 141V166" stroke="#f0daa6" stroke-width="5"/></g><path d="M26 24H1174M26 256H1174" stroke="#efd195" stroke-opacity=".2"/><path d="M36 18L42 24L36 30L30 24ZM1164 250L1170 256L1164 262L1158 256Z" fill="#efd195" opacity=".6"/></svg>