<svg xmlns="http://www.w3.org/2000/svg" width="1200" height="280" viewBox="0 0 1200 280"><defs><linearGradient id="bg"><stop stop-color="#211638"/><stop offset="1" stop-color="#584575"/></linearGradient><radialGradient id="window"><stop stop-color="#e9ca96" stop-opacity=".5"/><stop offset="1" stop-color="#b19bcb" stop-opacity=".05"/></radialGradient></defs><rect width="1200" height="280" rx="22" fill="url(#bg)"/><circle cx="484" cy="100" r="3" fill="#ffe0a0" opacity="0.7"/><circle cx="407" cy="117" r="1" fill="#ffe0a0" opacity="0.3"/><circle cx="709" cy="191" r="1" fill="#ffe0a0" opacity="0.3"/><circle cx="361" cy="149" r="2" fill="#ffe0a0" opacity="0.5"/><circle cx="1002" cy="228" r="3" fill="#ffe0a0" opacity="0.7"/><circle cx="853" cy="49" r="1" fill="#ffe0a0" opacity="0.3"/><circle cx="408" cy="74" r="2" fill="#ffe0a0" opacity="0.5"/><circle cx="708" cy="33" r="3" fill="#ffe0a0" opacity="0.5"/><circle cx="840" cy="76" r="2" fill="#ffe0a0" opacity="0.5"/><circle cx="975" cy="72" r="1" fill="#ffe0a0" opacity="0.3"/><circle cx="747" cy="113" r="1" fill="#ffe0a0" opacity="0.5"/><circle cx="725" cy="156" r="3" fill="#ffe0a0" opacity="0.7"/><circle cx="954" cy="17" r="2" fill="#ffe0a0" opacity="0.3"/><circle cx="823" cy="187" r="1" fill="#ffe0a0" opacity="0.3"/><circle cx="563" cy="132" r="3" fill="#ffe0a0" opacity="0.3"/><circle cx="1128" cy="203" r="3" fill="#ffe0a0" opacity="0.5"/><circle cx="932" cy="124" r="3" fill="#ffe0a0" opacity="0.7"/><circle cx="460" cy="31" r="1" fill="#ffe0a0" opacity="0.3"/><circle cx="678" cy="132" r="3" fill="#ffe0a0" opacity="0.5"/><circle cx="1149" cy="120" r="3" fill="#ffe0a0" opacity="0.7"/><circle cx="491" cy="43" r="3" fill="#ffe0a0" opacity="0.3"/><circle cx="980" cy="55" r="3" fill="#ffe0a0" opacity="0.7"/><circle cx="720" cy="180" r="2" fill="#ffe0a0" opacity="0.7"/><circle cx="612" cy="218" r="3" fill="#ffe0a0" opacity="0.3"/><circle cx="404" cy="102" r="3" fill="#ffe0a0" opacity="0.5"/><circle cx="1163" cy="96" r="2" fill="#ffe0a0" opacity="0.7"/><circle cx="476" cy="34" r="2" fill="#ffe0a0" opacity="0.7"/><circle cx="741" cy="212" r="3" fill="#ffe0a0" opacity="0.5"/><circle cx="1109" cy="26" r="3" fill="#ffe0a0" opacity="0.5"/><circle cx="509" cy="186" r="2" fill="#ffe0a0" opacity="0.7"/><circle cx="681" cy="158" r="3" fill="#ffe0a0" opacity="0.7"/><circle cx="958" cy="108" r="3" fill="#ffe0a0" opacity="0.7"/><circle cx="1120" cy="48" r="25" fill="#f4d9a1" opacity=".45"/><path d="M671 216Q710 98 802 182Q900 90 1020 173Q1100 82 1190 210Z" fill="#acb5c3" opacity=".13"/><path d="M838 235V107A112 112 0 0 1 1062 107V235" fill="url(#window)" stroke="#e6ca8e" stroke-opacity=".5" stroke-width="6"/><ellipse cx="944" cy="245" rx="209" ry="19" fill="#ead29c" opacity=".18"/><path d="M600 260Q915 218 1190 260" fill="none" stroke="#dec395" opacity=".25"/><g transform="translate(832 23) scale(.94)"><path d="M115 27L141 82L202 91L158 134L169 195L115 166L61 195L72 134L28 91L89 82Z" fill="#eccb78" stroke="#fff0b9" stroke-width="5"/><path d="M115 56L129 89L166 95L140 121L146 158L115 140L84 158L90 121L64 95L101 89Z" fill="#d99c5e"/><path d="M115 63V134L150 153" stroke="#fff2c6" stroke-width="3" fill="none"/></g><path d="M26 24H1174M26 256H1174" stroke="#efd195" stroke-opacity=".2"/><path d="M36 18L42 24L36 30L30 24ZM1164 250L1170 256L1164 262L1158 256Z" fill="#efd195" opacity=".6"/></svg>