<svg xmlns="http://www.w3.org/2000/svg" width="1200" height="280" viewBox="0 0 1200 280"><defs><linearGradient id="bg"><stop stop-color="#211638"/><stop offset="1" stop-color="#584575"/></linearGradient><radialGradient id="window"><stop stop-color="#e9ca96" stop-opacity=".5"/><stop offset="1" stop-color="#b19bcb" stop-opacity=".05"/></radialGradient></defs><rect width="1200" height="280" rx="22" fill="url(#bg)"/><circle cx="501" cy="116" r="2" fill="#ffe0a0" opacity="0.7"/><circle cx="694" cy="195" r="1" fill="#ffe0a0" opacity="0.3"/><circle cx="782" cy="14" r="2" fill="#ffe0a0" opacity="0.3"/><circle cx="956" cy="68" r="3" fill="#ffe0a0" opacity="0.7"/><circle cx="402" cy="45" r="1" fill="#ffe0a0" opacity="0.3"/><circle cx="919" cy="222" r="3" fill="#ffe0a0" opacity="0.7"/><circle cx="525" cy="52" r="3" fill="#ffe0a0" opacity="0.3"/><circle cx="1132" cy="155" r="2" fill="#ffe0a0" opacity="0.3"/><circle cx="432" cy="179" r="2" fill="#ffe0a0" opacity="0.7"/><circle cx="390" cy="12" r="3" fill="#ffe0a0" opacity="0.3"/><circle cx="1033" cy="187" r="3" fill="#ffe0a0" opacity="0.5"/><circle cx="474" cy="127" r="1" fill="#ffe0a0" opacity="0.7"/><circle cx="838" cy="17" r="3" fill="#ffe0a0" opacity="0.3"/><circle cx="439" cy="59" r="2" fill="#ffe0a0" opacity="0.5"/><circle cx="587" cy="81" r="1" fill="#ffe0a0" opacity="0.7"/><circle cx="576" cy="152" r="1" fill="#ffe0a0" opacity="0.7"/><circle cx="1144" cy="73" r="1" fill="#ffe0a0" opacity="0.5"/><circle cx="876" cy="203" r="1" fill="#ffe0a0" opacity="0.5"/><circle cx="549" cy="61" r="2" fill="#ffe0a0" opacity="0.7"/><circle cx="891" cy="167" r="3" fill="#ffe0a0" opacity="0.5"/><circle cx="601" cy="41" r="3" fill="#ffe0a0" opacity="0.7"/><circle cx="919" cy="133" r="3" fill="#ffe0a0" opacity="0.3"/><circle cx="378" cy="135" r="1" fill="#ffe0a0" opacity="0.5"/><circle cx="923" cy="230" r="1" fill="#ffe0a0" opacity="0.7"/><circle cx="928" cy="178" r="3" fill="#ffe0a0" opacity="0.5"/><circle cx="1170" cy="124" r="3" fill="#ffe0a0" opacity="0.5"/><circle cx="604" cy="77" r="2" fill="#ffe0a0" opacity="0.7"/><circle cx="542" cy="143" r="2" fill="#ffe0a0" opacity="0.3"/><circle cx="946" cy="102" r="2" fill="#ffe0a0" opacity="0.3"/><circle cx="1174" cy="229" r="3" fill="#ffe0a0" opacity="0.7"/><circle cx="1108" cy="46" r="3" fill="#ffe0a0" opacity="0.7"/><circle cx="1151" cy="42" r="1" fill="#ffe0a0" opacity="0.7"/><circle cx="1120" cy="48" r="25" fill="#f4d9a1" opacity=".45"/><path d="M670 195Q900 147 1160 195" fill="none" stroke="#c09cae" stroke-width="7" opacity=".4"/><path d="M700 150L730 133L760 150V190H700Z" fill="#e5c5b5" opacity=".35"/><path d="M1080 150L1110 133L1140 150V190H1080Z" fill="#e5c5b5" opacity=".35"/><path d="M838 235V107A112 112 0 0 1 1062 107V235" fill="url(#window)" stroke="#e6ca8e" stroke-opacity=".5" stroke-width="6"/><ellipse cx="944" cy="245" rx="209" ry="19" fill="#ead29c" opacity=".18"/><path d="M600 260Q915 218 1190 260" fill="none" stroke="#dec395" opacity=".25"/><g transform="translate(832 23) scale(.94)"><rect x="46" y="30" width="139" height="127" rx="10" fill="#fff0cb" transform="rotate(-9 115 95)"/><path d="M66 67H158M66 85H147M66 103H154" stroke="#b79775" stroke-width="4"/><path d="M24 98L115 43L211 98V204H24Z" fill="#b995bf"/><path d="M24 98L115 164L211 98M24 204L91 148M211 204L141 148" fill="none" stroke="#efcfa4" stroke-width="4"/><circle cx="115" cy="164" r="19" fill="#cd708a"/><path d="M103 162Q104 151 115 160Q126 151 127 162Q126 170 115 176Q104 170 103 162" fill="#fff0c6"/></g><path d="M26 24H1174M26 256H1174" stroke="#efd195" stroke-opacity=".2"/><path d="M36 18L42 24L36 30L30 24ZM1164 250L1170 256L1164 262L1158 256Z" fill="#efd195" opacity=".6"/></svg>