<svg xmlns="http://www.w3.org/2000/svg" width="1200" height="280" viewBox="0 0 1200 280"><defs><linearGradient id="bg"><stop stop-color="#073b34"/><stop offset="1" stop-color="#24645a"/></linearGradient><radialGradient id="window"><stop stop-color="#e9ca96" stop-opacity=".5"/><stop offset="1" stop-color="#b19bcb" stop-opacity=".05"/></radialGradient></defs><rect width="1200" height="280" rx="22" fill="url(#bg)"/><circle cx="1124" cy="124" r="2" fill="#ffe0a0" opacity="0.7"/><circle cx="416" cy="51" r="1" fill="#ffe0a0" opacity="0.3"/><circle cx="513" cy="13" r="1" fill="#ffe0a0" opacity="0.3"/><circle cx="669" cy="85" r="1" fill="#ffe0a0" opacity="0.5"/><circle cx="834" cy="164" r="3" fill="#ffe0a0" opacity="0.7"/><circle cx="833" cy="136" r="2" fill="#ffe0a0" opacity="0.3"/><circle cx="1145" cy="153" r="1" fill="#ffe0a0" opacity="0.7"/><circle cx="489" cy="118" r="2" fill="#ffe0a0" opacity="0.3"/><circle cx="400" cy="220" r="2" fill="#ffe0a0" opacity="0.3"/><circle cx="1186" cy="98" r="2" fill="#ffe0a0" opacity="0.5"/><circle cx="1026" cy="102" r="3" fill="#ffe0a0" opacity="0.3"/><circle cx="749" cy="68" r="3" fill="#ffe0a0" opacity="0.5"/><circle cx="856" cy="42" r="2" fill="#ffe0a0" opacity="0.3"/><circle cx="499" cy="188" r="2" fill="#ffe0a0" opacity="0.7"/><circle cx="1032" cy="95" r="3" fill="#ffe0a0" opacity="0.3"/><circle cx="656" cy="178" r="3" fill="#ffe0a0" opacity="0.3"/><circle cx="526" cy="179" r="2" fill="#ffe0a0" opacity="0.5"/><circle cx="841" cy="106" r="3" fill="#ffe0a0" opacity="0.3"/><circle cx="736" cy="34" r="3" fill="#ffe0a0" opacity="0.7"/><circle cx="483" cy="148" r="1" fill="#ffe0a0" opacity="0.3"/><circle cx="829" cy="173" r="2" fill="#ffe0a0" opacity="0.3"/><circle cx="1071" cy="108" r="2" fill="#ffe0a0" opacity="0.7"/><circle cx="1186" cy="21" r="1" fill="#ffe0a0" opacity="0.7"/><circle cx="638" cy="184" r="3" fill="#ffe0a0" opacity="0.7"/><circle cx="496" cy="65" r="3" fill="#ffe0a0" opacity="0.7"/><circle cx="1165" cy="206" r="2" fill="#ffe0a0" opacity="0.5"/><circle cx="768" cy="228" r="2" fill="#ffe0a0" opacity="0.5"/><circle cx="433" cy="128" r="1" fill="#ffe0a0" opacity="0.3"/><circle cx="849" cy="47" r="1" fill="#ffe0a0" opacity="0.7"/><circle cx="545" cy="40" r="1" fill="#ffe0a0" opacity="0.5"/><circle cx="470" cy="213" r="2" fill="#ffe0a0" opacity="0.5"/><circle cx="1178" cy="85" r="1" fill="#ffe0a0" opacity="0.7"/><path d="M655 260Q670 130 620 0M658 137Q710 78 765 48" stroke="#80ac99" stroke-opacity=".25" stroke-width="19" fill="none"/><path d="M1170 260Q1185 130 1135 0M1173 137Q1225 78 1280 48" stroke="#80ac99" stroke-opacity=".25" stroke-width="19" fill="none"/><path d="M671 216Q710 98 802 182Q900 90 1020 173Q1100 82 1190 210Z" fill="#acb5c3" opacity=".13"/><path d="M838 235V107A112 112 0 0 1 1062 107V235" fill="url(#window)" stroke="#e6ca8e" stroke-opacity=".5" stroke-width="6"/><ellipse cx="944" cy="245" rx="209" ry="19" fill="#ead29c" opacity=".18"/><path d="M600 260Q915 218 1190 260" fill="none" stroke="#dec395" opacity=".25"/><g transform="translate(832 23) scale(.94)"><g stroke="#f2ce83" stroke-width="7"><path d="M115 15V42M115 179V208M18 111H46M184 111H212M45 42L65 63M166 162L188 184M45 184L65 163M166 62L188 41"/></g><circle cx="115" cy="111" r="62" fill="#f1c672"/><circle cx="95" cy="102" r="5" fill="#875d4c"/><circle cx="137" cy="102" r="5" fill="#875d4c"/><path d="M96 128Q115 146 135 128" fill="none" stroke="#875d4c" stroke-width="5" stroke-linecap="round"/></g><path d="M26 24H1174M26 256H1174" stroke="#efd195" stroke-opacity=".2"/><path d="M36 18L42 24L36 30L30 24ZM1164 250L1170 256L1164 262L1158 256Z" fill="#efd195" opacity=".6"/></svg>